<svg width="28" height="28" viewBox="0 0 28 28" fill="none" xmlns="http://www.w3.org/2000/svg">
<path d="M28 14C28 16.7689 27.1789 19.4757 25.6406 21.778C24.1022 24.0803 21.9157 25.8747 19.3576 26.9343C16.7994 27.9939 13.9845 28.2712 11.2687 27.731C8.55301 27.1908 6.05845 25.8574 4.10051 23.8995C2.14258 21.9416 0.809205 19.447 0.269012 16.7313C-0.271181 14.0155 0.006066 11.2006 1.06569 8.64243C2.12532 6.08427 3.91974 3.89776 6.22202 2.35943C8.52431 0.821086 11.2311 0 14 0C17.713 0 21.274 1.475 23.8995 4.1005C26.525 6.72601 28 10.287 28 14ZM22.435 11.48C22.7444 11.1706 22.9183 10.7509 22.9183 10.3133C22.9183 9.87575 22.7444 9.45609 22.435 9.14667C22.1256 8.83725 21.7059 8.66342 21.2683 8.66342C20.8308 8.66342 20.4111 8.83725 20.1017 9.14667L12.2033 17.045L8.16667 13.02C7.85725 12.7106 7.43759 12.5367 7.00001 12.5367C6.56242 12.5367 6.14276 12.7106 5.83334 13.02C5.52392 13.3294 5.35009 13.7491 5.35009 14.1867C5.35009 14.6242 5.52392 15.0439 5.83334 15.3533L12.1917 21.7117L22.435 11.48Z" fill="white"/>
</svg>
