<svg width="129" height="73" viewBox="0 0 129 73" fill="none" xmlns="http://www.w3.org/2000/svg">
<path d="M1 32.6038V32.6038C20.6196 21.1591 44.8804 21.1591 64.5 32.6038V32.6038V32.6038C84.1196 44.0486 108.38 44.0486 128 32.6038V32.6038" stroke="#FF3131" stroke-width="2.46923" stroke-linecap="round" stroke-linejoin="round"/>
<path d="M1 25.5623V25.5623C20.6196 14.1176 44.8804 14.1176 64.5 25.5623V25.5623V25.5623C84.1196 37.0071 108.38 37.0071 128 25.5623V25.5623" stroke="#FF3131" stroke-width="2.46923" stroke-linecap="round" stroke-linejoin="round"/>
<path d="M1 18.5208V18.5208C20.6196 7.07605 44.8804 7.07605 64.5 18.5208V18.5208V18.5208C84.1196 29.9656 108.38 29.9656 128 18.5208V18.5208" stroke="#FF3131" stroke-width="2.46923" stroke-linecap="round" stroke-linejoin="round"/>
<path d="M1 39.6453V39.6453C20.6196 28.2006 44.8804 28.2006 64.5 39.6453V39.6453V39.6453C84.1196 51.0901 108.38 51.0901 128 39.6453V39.6453" stroke="#FF3131" stroke-width="2.46923" stroke-linecap="round" stroke-linejoin="round"/>
<path d="M1 46.6868V46.6868C20.6196 35.2421 44.8804 35.2421 64.5 46.6868V46.6868V46.6868C84.1196 58.1316 108.38 58.1316 128 46.6868V46.6868" stroke="#FF3131" stroke-width="2.46923" stroke-linecap="round" stroke-linejoin="round"/>
<path d="M1 53.7284V53.7284C20.6196 42.2836 44.8804 42.2836 64.5 53.7284V53.7284V53.7284C84.1196 65.1731 108.38 65.1731 128 53.7284V53.7284" stroke="#FF3131" stroke-width="2.46923" stroke-linecap="round" stroke-linejoin="round"/>
</svg>
