<svg width="254" height="253" viewBox="0 0 254 253" fill="none" xmlns="http://www.w3.org/2000/svg">
<path d="M16.6128 63.8115L63.8423 16.582C55.4459 21.3799 47.6793 27.1074 40.6324 33.6146L33.6454 40.6016C27.1382 47.6185 21.4107 55.4151 16.6128 63.8115Z" fill="#FF3131"/>
<path d="M2.51953 101.356L101.387 2.48877C98.6578 3.02853 95.959 3.68825 93.2901 4.40793L4.43874 93.2593C3.68907 95.9282 3.0593 98.627 2.51953 101.356Z" fill="#FF3131"/>
<path d="M0 126.485C0 126.755 0 127.025 0 127.295L127.295 0C127.025 0 126.755 0 126.485 0C124.656 0 122.827 0.0599538 120.997 0.119928L0.119882 120.997C0.059908 122.827 0 124.626 0 126.485Z" fill="#FF3131"/>
<path d="M1.97914 148.764L148.825 1.91824C147.056 1.61837 145.257 1.31851 143.488 1.07861L1.16943 143.397C1.37934 145.226 1.64928 146.995 1.97914 148.764Z" fill="#FF3131"/>
<path d="M6.77695 167.417L167.447 6.74691C165.888 6.20714 164.329 5.72735 162.769 5.24756L5.30762 162.709C5.75742 164.298 6.23718 165.858 6.77695 167.417Z" fill="#FF3131"/>
<path d="M13.7637 183.88L183.94 13.7039C182.56 13.0142 181.181 12.3246 179.771 11.6948L11.7246 179.712C12.3843 181.121 13.044 182.501 13.7637 183.88Z" fill="#FF3131"/>
<path d="M22.5198 198.543L198.573 22.4894C197.344 21.6498 196.114 20.8101 194.885 20.0005L20.061 194.824C20.8707 196.084 21.6802 197.313 22.5198 198.543Z" fill="#FF3131"/>
<path d="M32.9254 211.587L211.618 32.8948C210.538 31.9053 209.429 30.9457 208.319 30.0161L30.0166 208.319C30.9762 209.428 31.9359 210.508 32.9254 211.587Z" fill="#FF3131"/>
<path d="M44.861 223.103L223.134 44.8303C222.204 43.7208 221.244 42.6113 220.255 41.5317L41.5625 220.224C42.642 221.214 43.7515 222.173 44.861 223.103Z" fill="#FF3131"/>
<path d="M58.3546 233.059L233.119 58.2948C232.309 57.0353 231.499 55.8059 230.63 54.6064L54.6362 230.6C55.8657 231.439 57.0951 232.279 58.3546 233.059Z" fill="#FF3131"/>
<path d="M73.4971 241.365L241.394 73.4675C240.735 72.0581 240.075 70.6787 239.385 69.2993L69.3291 239.355C70.7085 240.045 72.0878 240.705 73.4971 241.365Z" fill="#FF3131"/>
<path d="M90.5307 247.783L247.842 90.5013C247.362 88.912 246.883 87.3526 246.373 85.8232L85.8525 246.343C87.3819 246.823 88.9414 247.303 90.5307 247.783Z" fill="#FF3131"/>
<path d="M109.842 251.891L251.92 109.812C251.68 108.013 251.411 106.244 251.111 104.445L104.504 251.051C106.274 251.381 108.043 251.651 109.842 251.891Z" fill="#FF3131"/>
<path d="M126.515 253C128.464 253 130.413 252.94 132.332 252.85L252.88 132.302C252.97 130.383 253.03 128.434 253.03 126.485C253.03 126.335 253.03 126.155 253.03 126.005L126.065 252.97C126.185 252.97 126.365 253 126.515 253Z" fill="#FF3131"/>
<path d="M160.19 248.442L248.472 160.161C249.222 157.492 249.881 154.763 250.421 152.034L152.034 250.421C154.792 249.852 157.521 249.192 160.19 248.442Z" fill="#FF3131"/>
<path d="M235.967 189.937L189.967 235.937C209.009 224.871 224.902 208.978 235.967 189.937Z" fill="#FF3131"/>
</svg>
