<svg width="83" height="83" viewBox="0 0 83 83" fill="none" xmlns="http://www.w3.org/2000/svg">
<rect width="3.9539" height="4" rx="1.97695" fill="#FF3131"/>
<rect x="8.75684" width="3.9539" height="4" rx="1.97695" fill="#FF3131"/>
<rect x="17.5137" width="3.9539" height="4" rx="1.97695" fill="#FF3131"/>
<rect x="26.27" width="3.9539" height="4" rx="1.97695" fill="#FF3131"/>
<rect x="35.0273" width="3.9539" height="4" rx="1.97695" fill="#FF3131"/>
<rect x="43.7837" width="3.9539" height="4" rx="1.97695" fill="#FF3131"/>
<rect x="52.5405" width="3.9539" height="4" rx="1.97695" fill="#FF3131"/>
<rect x="61.2974" width="3.9539" height="4" rx="1.97695" fill="#FF3131"/>
<rect x="70.0542" width="3.9539" height="4" rx="1.97695" fill="#FF3131"/>
<rect x="78.8105" width="3.9539" height="4" rx="1.97695" fill="#FF3131"/>
<rect y="8.85889" width="3.9539" height="4" rx="1.97695" fill="#FF3131"/>
<rect x="8.75684" y="8.85889" width="3.9539" height="4" rx="1.97695" fill="#FF3131"/>
<rect x="17.5137" y="8.85889" width="3.9539" height="4" rx="1.97695" fill="#FF3131"/>
<rect x="26.27" y="8.85889" width="3.9539" height="4" rx="1.97695" fill="#FF3131"/>
<rect x="35.0273" y="8.85889" width="3.9539" height="4" rx="1.97695" fill="#FF3131"/>
<rect x="43.7837" y="8.85889" width="3.9539" height="4" rx="1.97695" fill="#FF3131"/>
<rect x="52.5405" y="8.85889" width="3.9539" height="4" rx="1.97695" fill="#FF3131"/>
<rect x="61.2974" y="8.85889" width="3.9539" height="4" rx="1.97695" fill="#FF3131"/>
<rect x="70.0542" y="8.85889" width="3.9539" height="4" rx="1.97695" fill="#FF3131"/>
<rect x="78.8105" y="8.85889" width="3.9539" height="4" rx="1.97695" fill="#FF3131"/>
<rect y="17.7178" width="3.9539" height="4" rx="1.97695" fill="#FF3131"/>
<rect x="8.75684" y="17.7178" width="3.9539" height="4" rx="1.97695" fill="#FF3131"/>
<rect x="17.5137" y="17.7178" width="3.9539" height="4" rx="1.97695" fill="#FF3131"/>
<rect x="26.27" y="17.7178" width="3.9539" height="4" rx="1.97695" fill="#FF3131"/>
<rect x="35.0273" y="17.7178" width="3.9539" height="4" rx="1.97695" fill="#FF3131"/>
<rect x="43.7837" y="17.7178" width="3.9539" height="4" rx="1.97695" fill="#FF3131"/>
<rect x="52.5405" y="17.7178" width="3.9539" height="4" rx="1.97695" fill="#FF3131"/>
<rect x="61.2974" y="17.7178" width="3.9539" height="4" rx="1.97695" fill="#FF3131"/>
<rect x="70.0542" y="17.7178" width="3.9539" height="4" rx="1.97695" fill="#FF3131"/>
<rect x="78.8105" y="17.7178" width="3.9539" height="4" rx="1.97695" fill="#FF3131"/>
<rect y="26.5767" width="3.9539" height="4" rx="1.97695" fill="#FF3131"/>
<rect x="8.75684" y="26.5767" width="3.9539" height="4" rx="1.97695" fill="#FF3131"/>
<rect x="17.5137" y="26.5767" width="3.9539" height="4" rx="1.97695" fill="#FF3131"/>
<rect x="26.27" y="26.5767" width="3.9539" height="4" rx="1.97695" fill="#FF3131"/>
<rect x="35.0273" y="26.5767" width="3.9539" height="4" rx="1.97695" fill="#FF3131"/>
<rect x="43.7837" y="26.5767" width="3.9539" height="4" rx="1.97695" fill="#FF3131"/>
<rect x="52.5405" y="26.5767" width="3.9539" height="4" rx="1.97695" fill="#FF3131"/>
<rect x="61.2974" y="26.5767" width="3.9539" height="4" rx="1.97695" fill="#FF3131"/>
<rect x="70.0542" y="26.5767" width="3.9539" height="4" rx="1.97695" fill="#FF3131"/>
<rect x="78.8105" y="26.5767" width="3.9539" height="4" rx="1.97695" fill="#FF3131"/>
<rect y="35.4355" width="3.9539" height="4" rx="1.97695" fill="#FF3131"/>
<rect x="8.75684" y="35.4355" width="3.9539" height="4" rx="1.97695" fill="#FF3131"/>
<rect x="17.5137" y="35.4355" width="3.9539" height="4" rx="1.97695" fill="#FF3131"/>
<rect x="26.27" y="35.4355" width="3.9539" height="4" rx="1.97695" fill="#FF3131"/>
<rect x="35.0273" y="35.4355" width="3.9539" height="4" rx="1.97695" fill="#FF3131"/>
<rect x="43.7837" y="35.4355" width="3.9539" height="4" rx="1.97695" fill="#FF3131"/>
<rect x="52.5405" y="35.4355" width="3.9539" height="4" rx="1.97695" fill="#FF3131"/>
<rect x="61.2974" y="35.4355" width="3.9539" height="4" rx="1.97695" fill="#FF3131"/>
<rect x="70.0542" y="35.4355" width="3.9539" height="4" rx="1.97695" fill="#FF3131"/>
<rect x="78.8105" y="35.4355" width="3.9539" height="4" rx="1.97695" fill="#FF3131"/>
<rect y="44.2944" width="3.9539" height="4" rx="1.97695" fill="#FF3131"/>
<rect x="8.75684" y="44.2944" width="3.9539" height="4" rx="1.97695" fill="#FF3131"/>
<rect x="17.5137" y="44.2944" width="3.9539" height="4" rx="1.97695" fill="#FF3131"/>
<rect x="26.27" y="44.2944" width="3.9539" height="4" rx="1.97695" fill="#FF3131"/>
<rect x="35.0273" y="44.2944" width="3.9539" height="4" rx="1.97695" fill="#FF3131"/>
<rect x="43.7837" y="44.2944" width="3.9539" height="4" rx="1.97695" fill="#FF3131"/>
<rect x="52.5405" y="44.2944" width="3.9539" height="4" rx="1.97695" fill="#FF3131"/>
<rect x="61.2974" y="44.2944" width="3.9539" height="4" rx="1.97695" fill="#FF3131"/>
<rect x="70.0542" y="44.2944" width="3.9539" height="4" rx="1.97695" fill="#FF3131"/>
<rect x="78.8105" y="44.2944" width="3.9539" height="4" rx="1.97695" fill="#FF3131"/>
<rect y="53.1528" width="3.9539" height="4" rx="1.97695" fill="#FF3131"/>
<rect y="61.6973" width="3.9539" height="4" rx="1.97695" fill="#FF3131"/>
<rect y="70.2412" width="3.9539" height="4" rx="1.97695" fill="#FF3131"/>
<rect y="78.7852" width="3.9539" height="4" rx="1.97695" fill="#FF3131"/>
<rect x="8.75684" y="53.1528" width="3.9539" height="4" rx="1.97695" fill="#FF3131"/>
<rect x="8.75684" y="61.6973" width="3.9539" height="4" rx="1.97695" fill="#FF3131"/>
<rect x="8.75684" y="70.2412" width="3.9539" height="4" rx="1.97695" fill="#FF3131"/>
<rect x="8.75684" y="78.7852" width="3.9539" height="4" rx="1.97695" fill="#FF3131"/>
<rect x="17.5137" y="53.1528" width="3.9539" height="4" rx="1.97695" fill="#FF3131"/>
<rect x="17.5137" y="61.6973" width="3.9539" height="4" rx="1.97695" fill="#FF3131"/>
<rect x="17.5137" y="70.2412" width="3.9539" height="4" rx="1.97695" fill="#FF3131"/>
<rect x="17.5137" y="78.7852" width="3.9539" height="4" rx="1.97695" fill="#FF3131"/>
<rect x="26.27" y="53.1528" width="3.9539" height="4" rx="1.97695" fill="#FF3131"/>
<rect x="26.27" y="61.6973" width="3.9539" height="4" rx="1.97695" fill="#FF3131"/>
<rect x="26.27" y="70.2412" width="3.9539" height="4" rx="1.97695" fill="#FF3131"/>
<rect x="26.27" y="78.7852" width="3.9539" height="4" rx="1.97695" fill="#FF3131"/>
<rect x="35.0273" y="53.1528" width="3.9539" height="4" rx="1.97695" fill="#FF3131"/>
<rect x="35.0273" y="61.6973" width="3.9539" height="4" rx="1.97695" fill="#FF3131"/>
<rect x="35.0273" y="70.2412" width="3.9539" height="4" rx="1.97695" fill="#FF3131"/>
<rect x="35.0273" y="78.7852" width="3.9539" height="4" rx="1.97695" fill="#FF3131"/>
<rect x="43.7837" y="53.1528" width="3.9539" height="4" rx="1.97695" fill="#FF3131"/>
<rect x="43.7837" y="61.6973" width="3.9539" height="4" rx="1.97695" fill="#FF3131"/>
<rect x="43.7837" y="70.2412" width="3.9539" height="4" rx="1.97695" fill="#FF3131"/>
<rect x="43.7837" y="78.7852" width="3.9539" height="4" rx="1.97695" fill="#FF3131"/>
<rect x="52.5405" y="53.1528" width="3.9539" height="4" rx="1.97695" fill="#FF3131"/>
<rect x="52.5405" y="61.6973" width="3.9539" height="4" rx="1.97695" fill="#FF3131"/>
<rect x="52.5405" y="70.2412" width="3.9539" height="4" rx="1.97695" fill="#FF3131"/>
<rect x="52.5405" y="78.7852" width="3.9539" height="4" rx="1.97695" fill="#FF3131"/>
<rect x="61.2974" y="53.1528" width="3.9539" height="4" rx="1.97695" fill="#FF3131"/>
<rect x="61.2974" y="61.6973" width="3.9539" height="4" rx="1.97695" fill="#FF3131"/>
<rect x="61.2974" y="70.2412" width="3.9539" height="4" rx="1.97695" fill="#FF3131"/>
<rect x="61.2974" y="78.7852" width="3.9539" height="4" rx="1.97695" fill="#FF3131"/>
<rect x="70.0542" y="53.1528" width="3.9539" height="4" rx="1.97695" fill="#FF3131"/>
<rect x="70.0542" y="61.6973" width="3.9539" height="4" rx="1.97695" fill="#FF3131"/>
<rect x="70.0542" y="70.2412" width="3.9539" height="4" rx="1.97695" fill="#FF3131"/>
<rect x="70.0542" y="78.7852" width="3.9539" height="4" rx="1.97695" fill="#FF3131"/>
<rect x="78.8105" y="53.1528" width="3.9539" height="4" rx="1.97695" fill="#FF3131"/>
<rect x="78.8105" y="61.6973" width="3.9539" height="4" rx="1.97695" fill="#FF3131"/>
<rect x="78.8105" y="70.2412" width="3.9539" height="4" rx="1.97695" fill="#FF3131"/>
<rect x="78.8105" y="78.7852" width="3.9539" height="4" rx="1.97695" fill="#FF3131"/>
</svg>
